<?xml version="1.0" encoding="utf-8"?>
<!-- Generator: Adobe Illustrator 25.0.1, SVG Export Plug-In . SVG Version: 6.00 Build 0)  -->
<svg version="1.1" id="Ebene_1" xmlns="http://www.w3.org/2000/svg" xmlns:xlink="http://www.w3.org/1999/xlink" x="0px" y="0px"
	 viewBox="0 0 1252.2 216.8" style="enable-background:new 0 0 1252.2 216.8;" xml:space="preserve">
<style type="text/css">
	.st0{fill:#056478;}
	.st1{fill:#FFFFFF;}
	.st2{fill:none;}
</style>
<circle class="st0" cx="112.3" cy="114.3" r="91.3"/>
<path class="st1" d="M126.2,153c-0.9-0.1-1.8,0-2.7-0.2c-0.5-0.1-1-0.7-1.3-1.1c-0.8-1.4-1.2-3-2.2-4.1c-0.9-1-2.4-1.4-3.7-2.2
	c-0.5-0.3-0.9-0.6-1.3-0.9c-0.3-0.2-0.8-0.6-1-0.4c-1.2,0.8-4.1-0.6-3.6,2.5c0,0.1-0.3,0.3-0.4,0.5c-0.1-0.3-0.2-0.5-0.3-0.8
	c-0.1-0.2-0.1-0.4-0.2-0.6c-0.2,0.2-0.4,0.4-0.5,0.6c-0.5,2,3.3,5.8,5.3,5.2c0.7-0.2,1.3-1,1.9-1.5c0.3-0.2,0.5-0.4,0.8-0.7
	c0.3,0.3,0.6,0.6,0.7,1c0.2,0.5,0.2,1,0.4,1.5c0.1,0.1,0.4,0.2,0.6,0.3c-0.2,0.4-0.4,0.9-0.7,1.3c-0.8,1-1.7,2-2.7,2.9
	c-0.3,0.3-1.1,0.5-1.2,0.4c-1.6-2-3.3-4-4.8-6.2c-1.5-2.3-3.3-1.3-5-0.7c-0.6,0.2-0.9,1.1-1.4,1.7c-0.1,0.1-0.3,0.2-0.4,0.2
	c-1.4,0.3-3.1,0.3-4.3,1c-1.4,0.9-7,2.1-8.6,1.6c-1.5-0.4-3.4-0.7-4.8-0.2c-1.3,0.4-1.5,0.6-1.5-0.9c0-0.4-1.1-1.3-1.7-1.2
	c-5.4,0.2-10.8,0.5-16.2,0.7c-0.4,0-1.2-0.6-1.2-0.9c0-1.4-0.9-1.8-2.5-1.4c-1.1,0.2-2.4-0.2-3.6-0.4c-0.7-0.1-1.4-0.4-2-0.3
	c-3.4,0.7-6.8,1.5-10.3,2.2c-0.4,0.1-0.8,0.2-1.2,0.3c0.2-0.5,0.3-1.1,0.6-1.5c0.2-0.2,0.8,0.1,1.1,0.1c0.8-0.1,1.5-0.3,2.2-0.5
	c0-0.1-0.1-0.3-0.2-0.3c-1.7,0.1-3.9-0.5-4.9,0.4c-1.8,1.7-3.4,1.8-5.2,1c0.6,1.7,2,3.1,3.6,4.1c0.1,0.1,0.2,0.1,0.2,0.2
	c1.7,0.9,3.4,1.9,5.1,2.8c0.7-0.1,1.2,0.3,1.4,0.8c0.2,0.2,0.3,0.5,0.5,0.8c-0.2,0.1-0.4,0.2-0.5,0.3c-0.1,0.3-0.4,0.5-0.8,0.5
	c-1.5,0.3-5.5,0.4-6.5,2.1c0.1,0.6,0.2,1.2,0.3,1.8c0.3,0.3,0.6,0.5,1.1,0.7c0.8,0.3,1.8,0.3,2.5,0.3c0.6,0,1.2,0,1.8,0
	c0.3-0.1,0.6-0.1,0.9-0.2c0.4-0.1,0.8-0.3,1.2-0.4c1-0.5,2-1.1,3.1-1.5c0.3-0.1,0.7,0.3,1.1,0.5c-0.3-0.3-0.7-0.6-1-0.9
	c-0.2-0.2-0.4-0.5-0.6-0.8c0.2-0.1,0.3-0.3,0.4-0.2c1.6,0.6,3.2,1.2,4.8,1.9c0.3,0.1,0.3,0.6,0.5,1c-0.4,0.1-0.7,0.3-1.1,0.3
	c-1.2-0.1-2.4-0.4-3.6-0.3c-0.8,0-1.7,0.5-2.5,0.7c0.8-0.1,1.7-0.3,2.5-0.4c0.3,0,0.5-0.1,0.8-0.1c1.5,0.1,3.1,0.2,4.7,0.5
	c0.8,0.1,1.5,0.8,2.3,1c0.7,0.2,1.5,0.2,2.2,0.2c0.2,0,0.4-0.1,0.5-0.2c-0.4-0.2-0.8-0.4-1.1-0.7c-0.2-0.1-0.3-0.5-0.2-0.7
	c0.1-0.2,0.4-0.5,0.6-0.5c1.9-0.3,3.8-0.5,5.7-0.7c0.3,0,0.7,0.1,1,0.2c-0.3,0.2-0.5,0.4-0.8,0.6c-0.6,0.4-1.2,0.9-1.7,1.3
	c0.6,0.1,1.2,0.1,1.8,0.2c0.3,0.1,0.6,0.2,0.9,0.3c-0.2,0.2-0.4,0.4-0.7,0.5c-0.6,0.1-1.2,0.2-1.9,0.3c0.7,0.1,1.3,0.3,2,0.3
	c0.8,0,1.5-0.2,2.2-0.2c1.8-0.1,3.7-0.1,5.5-0.1c0.4,0,0.9,0.1,1.3,0.2c0-0.2,0-0.4-0.1-0.5c-0.4-0.2-0.9-0.4-1.3-0.6
	c-0.4-0.1-0.8-0.1-1.1-0.2c0.3-0.2,0.7-0.6,1.1-0.7c2.3-0.3,4.5-0.4,6.8-0.6c0.1,0,0.3,0,0.4,0c-0.1,0.1-0.2,0.4-0.3,0.4
	c-1.2,0.4-2.4,0.8-3.6,1.1c-0.2,0.1-0.5,0.1-0.7,0.2c0.2,0.2,0.3,0.4,0.5,0.5c2,0.6,4,1.1,6,1.7c1,0.3,2.5-1.2,3,1.1
	c0.1,0.4,2.3,0.3,3.5,0.4c0.1,0,0.4-0.9,0.3-1c-0.6-0.4-1.2-0.7-1.8-1c-0.3-0.1-0.6-0.2-0.9-0.3c0.3-0.2,0.6-0.3,0.8-0.5
	c1-0.7,1.9-1.5,2.9-2.2c0.3-0.2,0.8-0.2,1.1-0.1c0.8,0.4,1.5,1.3,2.3,1.4c1,0.1,2-0.4,3-0.6c-0.8-0.3-1.6-0.6-2.3-0.9
	c-0.3-0.1-0.6-0.5-0.9-0.7c0.3-0.2,0.6-0.6,0.8-0.5c1.2,0.3,2.3,0.7,3.4,1.1c0.3,0.1,0.8,0.6,1,0.5c0.5-0.2,1-0.7,1.4-1
	c-0.1-0.1-0.1-0.2-0.2-0.3c-0.5-0.2-1-0.4-1.6-0.6c0.6-0.2,1.3-0.6,1.9-0.5c1.4,0.2,2.8,0.6,4.2,1c0.5,0.1,0.9,0.2,1.4,0.3
	c0-0.2,0-0.4-0.1-0.5c-0.2-0.2-0.5-0.4-0.7-0.6c0.2-0.1,0.4-0.3,0.5-0.2c0.5,0.1,0.9,0.3,1.4,0.4c1.6,0.6,3.1,1.2,4.7,1.7
	c0.6,0.2,1.3,0,2,0c-0.6,0.2-1.3,0.5-1.9,0.7c-0.3,0.1-0.8-0.1-0.9,0.1c-0.3,0.4-0.6,1-0.7,1.5c0,0.1,0.6,0.4,0.9,0.4
	c1.6-0.1,3.2-0.2,4.8-0.3c0.2,0,0.5-0.3,0.6-0.5c0.3-0.7,0.6-1.4,0.9-2.1c0.1-0.3,0.3-0.8,0.2-0.9c-0.5-0.7-1.1-1.3-1.6-1.9
	c-0.1-0.1,0.1-0.4,0.3-0.5c1.3-1,2.7-1.9,4-2.9c0.3-0.3,0.4-1,0.3-1.5c-0.7-2.6-1.2-4.8,2.9-3.6c0.6,0.2,1.5-0.2,2.2-0.3
	C127.6,153.2,126.9,153.1,126.2,153z M87.7,165.6c0,0.1,0,0.1,0,0.2c-1-0.2-2-0.3-3-0.5c1.4-0.4,2.8-0.9,4.3-1.1
	c0.2,0,0.6,0.9,0.9,1.4L87.7,165.6L87.7,165.6z M116.9,164.2c-1.5,0-3.1,0-4.6-0.1c-0.5-0.1-1-0.6-1.6-0.9c0.5-0.3,1-0.5,1.5-0.8
	c1.7,0.5,3.2,1,4.8,1.6c0.2,0.1,0.3,0.3,0.4,0.4C117.2,164.3,117,164.2,116.9,164.2z"/>
<path class="st1" d="M163.9,99c-0.5,0.1-3.8,0.1-4.2-0.1c-2.9-0.7-5.9,0.4-8.7-0.4c-0.1,0-0.4,0.1-0.5,0.1c0.1,0.3,0.1,0.6,0.3,0.8
	s0.6,0.3,0.8,0.4c-0.3,0.1-0.7,0.2-1,0.2c-3-0.7-2.2,0.9-1.9,2.7c0.6,3,0.8,6.1,1.3,9.2c0.9,5.2,1.3,10.7,3,15.6
	c0.9,2.6,4.5,4.1,6.7,6.3c1.5,1.6,2.6,3.5,4,5.2c0.4,0.5,0.9,1,1.5,1.2c0.2,0.1,0.7-0.6,1.2-0.8c0.6-0.3,1.2-0.4,1.8-0.6
	c0,0.6,0.2,1.4,0,1.9c-0.7,1.4-1.4,2.9-2.5,3.9c-1.4,1.1-3.3,1.7-5,2.5c-0.1,0-0.3-0.1-0.4-0.2c0.3-0.3,0.5-0.6,0.8-0.8
	c0.7-0.5,2.1-1.1,2-1.4c-0.6-2.2-0.9-4.9-2.3-6.3c-2.5-2.2-5.6-3.6-8.7-5c-4.2-1.8-5.1-5.7-5.8-9.4c-0.5-3-2.1-3.4-4.6-3.9
	c-5.7-1.2-10.2,1-13.8,5c-3.1,3.4-5.8,7.2-8.5,11c-1,1.3-1.4,3-2.2,4.5c-0.3,0.6-1.1,1.3-1.6,1.3c-2.3-0.1-4.7-0.3-7-0.6
	c-0.4,0-0.8-0.3-1.2-0.5c0.4-0.1,0.8-0.3,1.3-0.3c1.9,0,3.9,0.2,5.8,0.2c0.4,0,0.8-0.3,1.2-0.4c-0.2-0.3-0.4-0.6-0.7-0.8
	c-0.9-0.9-1.6-1.4-0.4-3.1c3.2-4.6,5.7-9.7,8.9-14.2c2.2-3.1,5.2-5.5,7.8-8.2c1.4-1.4,3-2.8,4-4.4c0.6-1,0.3-2.5,0.4-3.8
	c0.1-2.3,0.3-4.6,0.4-6.8c0.2-2.4,0.4-4.9,0.4-7.3c0-0.7-0.9-1.8-1.7-2.1c-3.9-1.4-7.8-2.6-11.7-4c-0.6-0.2-1.3-0.8-1.6-1.3
	c-2-3.3-5.9-4.2-9.4-2.1c-1.4,0.8-3.2,1.2-4.8,1.8c-0.1,0.1-0.4-0.2-0.6-0.3c0.2-0.1,0.4-0.1,0.6-0.2c1.4-0.9,2.8-1.8,4.3-2.6
	c1.4-0.7,2.9-1.1,4.3-1.6c0.3-0.1,0.5-0.3,0.8-0.4c0.3-0.1,0.7,0,0.9,0.1c0.2,0.1,0.3,0.5,0.5,0.7c-0.3,0.1-0.5,0.3-0.8,0.3
	c-0.7,0-1.3-0.1-1.9-0.1c0,0.1,0,0.2,0,0.2c0.9,0.1,2.1,0.6,2.8,0.2c2.3-1.3,3.8-0.2,5.6,1.1c1.6,1.1,3.4,2.2,5.3,2.5
	c2.5,0.4,5.1,0.1,7.7-0.1c0.7,0,1.4-0.6,2.2-0.8c-0.3-0.4-0.7-0.8-0.8-1.3c-0.1-0.8,0.1-1.6,0-2.4c0-0.3-0.6-0.5-1-0.7
	c-0.1,0.2-0.2,0.3-0.2,0.4c0,0.5,0.1,1,0.2,1.5c-1.1-0.5-2.3-0.9-3.3-1.6c-0.6-0.4-1-1.2-1.4-1.8c-0.1-0.2-0.2-0.9-0.1-0.9
	c2-0.8,4.3-2.5,6-2c4.5,1.3,6.2,4.9,4.7,8c-0.1,0.3-0.4,0.6-0.6,0.8c0.1-0.3,0.1-0.6,0.1-0.9c0.1-0.4,0.3-0.8,0.2-1.2
	c-0.1-1.1-0.2-2.2-0.3-3.3c0,1,0.4,2.2-0.1,3c-0.8,1.6-2,2.9-3.1,4.3c-0.1,0.2-0.3,0.4-0.4,0.6c0.2-0.1,0.5,0,0.7-0.2
	c3-1.8,5,0.2,7.1,1.9c0.3,0.2,0.2,0.8,0.3,1.2c-0.4,0.1-0.8,0.2-1.1,0.2c-1.3-0.3-2.6-0.7-3.9-1c-0.2-0.1-0.4,0-0.5-0.1
	c0.1,0.1,0.3,0.3,0.4,0.4c4.1,2,8.3,3.9,12.3,5.9c1.8,0.9,3.6,0.1,5.4,0.4c1,0.2,1.6,2,3.1,0.9c0.7-0.5,2.4,3.1,3.1,3.1"/>
<path class="st1" d="M166.6,174.5c2.7-0.2,5.4-0.8,8.2-1.3c0.5-0.4,1-0.8,1.4-1.3c0.7-1.1,1.1-2.5,1.4-3.7c0.2-1,0.2-2,0-3
	c-0.3-1.2-0.8-2.5-1.7-3.5c-0.2,0-0.3,0-0.5-0.1c-1.4-0.2-2.7-0.6-4-0.9c-0.6-0.1-1.3-0.2-2-0.3c0.3,0.7,0.6,1.4,1,2.1
	c-2.1-0.8-2.1-0.9-2-2.1c0-0.1-0.3-0.3-0.5-0.3c-1.3,0.3-2.5,0.6-3.7,0.8c0.9,0.5,1.9,1.1,2.8,1.6c0.2,0.1,0.5,0.2,0.7,0.4
	c0.6,0.5,1.1,0.9,1.6,1.4c-0.8-0.1-1.6-0.3-2.4-0.4c-0.1,0-0.2-0.2-0.4-0.2c-2.5-0.9-4.9-1.8-7.4-2.6c-0.2-0.1-0.5,0.2-0.7,0.3
	c0.2,0.2,0.3,0.4,0.5,0.5c1.1,0.2,2.3,0.4,3.4,0.6c0.3,0.1,0.5,0.3,0.7,0.4c-0.3,0.1-0.6,0.2-0.7,0.1c-1.6-1.2-4,1.6-5.4-1.3
	c-0.3-0.6-2.6-0.2-4-0.3c-0.5,0-1-0.1-1.5-0.2c0.6-0.1,1.1-0.1,1.6-0.1c0.4-0.1,0.8-0.1,1.1-0.2c-0.2-0.1-0.4-0.3-0.5-0.4
	c-2.9-0.1-5.7,0-7.9,2.3c-0.6,0.6-1.6,0.9-2.1,1.6c-0.5,0.7-1.1,2.2-0.9,2.4c1.4,1,3,1.7,4.6,2.5c0.1,0.1,0.3,0.1,0.4,0.2
	c-0.1,0.1-0.1,0.2-0.2,0.2c-0.3,0.2-0.6,0.3-0.9,0.4c0.4,0.1,0.8,0.3,1.3,0.3c3.6,0.3,7.1,0.6,10.7,1c0.6,0.1,1.1,0.3,1.7,0.5
	c-0.1,0.1-0.1,0.4-0.2,0.4c-0.7,0-1.4-0.1-2-0.2c-0.2,0-0.4-0.3-0.6-0.4c-0.1-0.1-0.3,0-0.4,0c0.1,0.1,0.1,0.2,0.2,0.3
	c0.3,0.4,0.7,0.8,1,1.2c-0.6,0-1.3-0.1-1.9-0.1c-0.4,0-0.7,0.1-1.1,0.2c0.4,0.1,0.7,0.3,1.1,0.4c1.1,0,2.2-0.1,3.3,0
	C161.9,174,164.3,174.7,166.6,174.5z M175.8,162.9c0.2,0,0.4,0.1,0.6,0.1c-0.2,0.2-0.4,0.5-0.6,0.5c-1.7,0.3-3.4,0.5-5.1,0.8
	c0-0.2,0.1-0.5,0.1-0.7c-0.1-0.3-0.3-0.6-0.4-0.8C172.2,162.8,174,162.8,175.8,162.9z"/>
<path class="st1" d="M48.9,160.1c0.2-0.1,0.4-0.2,0.5-0.3c-0.2-0.2-0.3-0.6-0.5-0.8C49,159.3,49,159.7,48.9,160.1z"/>
<path class="st1" d="M40.4,158.3c0.1,0.2,0.2,0.3,0.3,0.5c1.3-0.8,2.6-1.2,4.1-1.1c0.1,0,0.2,0,0.3,0.1c0.3,0,0.5-0.1,0.8-0.1
	c0.5,0,0.9,0.3,1.1,0.6c0.2,0,0.3-0.1,0.4-0.1c0,0,0,0,0,0c-1.7-0.9-3.4-1.9-5.1-2.8c0.9,0.9-0.2,2.7-1.5,1.9
	c-1.2-0.7-2.2-1.6-3-2.6v0.7c0.8,0.5,1.3,1.1,1.8,1.9C40,157.6,40.2,157.9,40.4,158.3z"/>
<path class="st1" d="M168.1,154.3c0.6,0.2,1.2,0.4,1.8,0.6c0,0,0-0.1,0-0.1c0.7-0.2,1.4-0.4,2.1-0.7c0.2-0.1,0.4-0.4,0.5-0.6
	c0.3-0.6,0.5-1.2,0.7-1.9c0.1-0.4,0.1-1,0-1.1c-0.5-0.1-1-0.1-1.5-0.1c-1,0.2-2,0.5-3,0.7c-0.4,0.1-0.9-0.1-1.4-0.1
	c0.1,0.7,0.2,1.5,0.4,2.2C167.8,153.6,167.9,154,168.1,154.3z"/>
<path class="st1" d="M88.8,173.1c0.1,0,0.1,0,0.2,0c0.2,0,0.5,0.1,0.7,0.2c0.9,0.3,1.9,0.6,2.8,0.8c0-0.2,0-0.3-0.1-0.4
	c-0.2-0.3-0.8-0.2-1.2-0.3c0.4-0.1,0.9-0.2,1.3-0.3c0.1,0,0.3-0.1,0.4-0.2c-0.2-0.1-0.4-0.3-0.6-0.3c-1.6-0.1-3.2-0.4-4.8-0.4
	c-1.1,0-2.3,0.1-3.4,0.3C85.5,172.5,87.1,172.7,88.8,173.1z"/>
<path class="st1" d="M40.1,144.2c-0.5,0.7-1,1.4-1.3,2.3c1.4-0.6,2.8-1.3,4.3-1.9c0.2-0.1,0.2-0.4,0.3-0.6c-0.2,0-0.3,0-0.5,0
	C41.9,144.1,41,144.1,40.1,144.2z"/>
<path class="st1" d="M90.4,100.3c0.2,5.4-0.7,12.2-0.8,17.6c0,1.6,0.8,3.3,1.1,4.9c0.1,0.6,0,1.2-0.2,1.8c-0.9,3.3-1.8,6.6-2.7,10
	c-0.1,0.4-0.7,0.8-1.1,1.1c-0.1-0.4-0.1-0.9-0.2-1.3c-0.4-0.8-1.2-1.6-1.3-2.4c-0.4-2-0.3-4-0.7-6c-0.1-0.7-0.9-1.3-1.4-2
	c-0.2-0.2-0.4-0.4-0.4-0.7c-0.2-2.4-0.2-4.9-0.4-7.3c-0.5-4.7-1.1-9.4-1.8-14.1c-0.1-0.7-0.7-1.3-1.1-1.9c-0.4,0.5-1,0.9-1.3,1.5
	c-2.5,5.1-5.2,10.2-7.4,15.4c-1.4,3.2-2.2,6.8-3.3,10.1c-0.1,0.2-0.3,0.5-0.4,0.5c-4.7-0.5-4,3.8-5.4,6.1c-0.8,1.2-1.4,2.4-2.2,3.6
	c-0.2,0.3-0.5,0.4-0.8,0.6c0-0.4-0.2-0.9-0.1-1.3c0.7-3.1,1.7-6.2,2-9.4c0.2-1.8-0.4-3.5,0.3-5.5c2.3-6.2,4-12.5,6-18.8
	c0.2-0.5,0-1.1-0.1-1.7c0-0.2-0.3-0.3-0.5-0.4c-0.5,3.5-0.6,0.7-1.1,0c-0.2-0.3-0.9-0.1-1.4-0.2c0,0.3,0.1,0.6,0.1,0.9
	c0,0.6,0.2,1.2,0,1.7c-0.1,0.3-0.8,0.2-1.3,0.3c-0.1-0.5-0.4-1.1-0.3-1.5c0.3-0.9,0.9-1.8,1.3-2.7c0.5-0.9,0.8-1.9,1.3-2.8
	c0.7-1.1,1.5-2.1,2.3-3.1c0.3,0.5,0.6,0.9,1,1.4c0.5-0.5,1.2-1,1.5-1.6c0.8-1.8,1.6-3.7,2.3-5.5c0.9-2.2,1.8-4.5,2.6-6.7
	c0.1-0.3,0.1-0.8,0.1-1.2c-0.3,0.3-0.7,0.6-0.9,0.9c-2.2,4.2-4.4,8.5-6.6,12.8c0.9-3.4,1.4-7.1,2.9-10.3c1.3-2.8,4.1-4.8,5.7-7.5
	c0.9-1.6,0.6-3.9,1.1-5.9c0.2-0.7,1-1.6,1.7-1.9c1.6-0.7,3.3-0.9,5-1.6c0.6-0.2,0.9-1,1.4-1.6c-0.6-0.4-1.2-0.6-1.6-1.1
	c-0.5-0.6-1.1-1.4-1.2-2.2c-0.2-1-0.2-2.2,0.2-3c0.4-0.7,1.7-1.4,2.5-1.3c1,0.1,1.9,0.9,2.8,1.4c0.6,0.3,1.1,0.8,1.7,1
	c1.2,0.5,3,0.5,3.5,1.3c0.7,1.2,0.5,3,0.6,4.6c0,0.3-0.3,0.7-0.5,1.1c-0.7,1.8-0.3,3,1.7,3.7c3,1,2.6,3,1.4,5.2
	c-0.4,0.8-0.8,1.7-1.3,2.6v0c-1.9,3.8-4.2,7.4-5.6,11.3c-0.9,2.6-1.8,4-0.6,7.1"/>
<path d="M132.6,97.2"/>
<path d="M131.6,94.7"/>
<path class="st0" d="M90,66.2c-1.8,0.6-2.7,0.8-3.6,1.1c-0.3,0.1-0.8,0.6-0.7,0.8c0.3,0.8,0.6,1.7,1.1,2.3c0.2,0.2,1.2,0.2,1.5-0.1
	c0.6-0.7,1.1-1.6,1.5-2.5C90,67.6,89.9,67.1,90,66.2z"/>
<path class="st1" d="M84.3,140.3c-0.2,0.1-0.4,0.1-0.7,0.1c0.1,0.2,0.3,0.3,0.4,0.5c0.5,0.8,1.1,1.6,1.6,2.4
	c0.2,0.3,0.4,0.7,0.6,1.1c0.3-0.2,0.5-0.5,0.8-0.7c0.1-0.1,0.4,0.1,0.6,0.1c0.4,0.1,1,0.3,1.3,0.2c0.6-0.3,1.2-0.8,1.7-1.2
	c-0.1,0.6-0.2,1.3-0.3,1.9c0,0,0.1,0.1,0.1,0.1c-0.7,0.4-1.5,1.1-2.2,1.1c-0.9,0-1.8-0.9-2.7-1c-0.9-0.1-2,0.2-2.9,0.4
	c-0.6,0.1-1.1,0.6-1.7,0.8c-0.9,0.2-1.8,0.3-2.7,0.4c-0.2,0-0.4,0.3-0.6,0.5c0.2,0.1,0.5,0.1,0.7,0.2c0.3,0.1,0.7,0.4,0.7,0.5
	c-0.3,0.5-0.8,1.5-1,1.5c-2.2-0.4-4.3-1-6.4-1.6c-0.3-0.1-0.6-0.2-0.9-0.2c-0.8-0.1-1.6-0.2-2.3-0.3c0.8-0.3,1.5-0.7,2.3-0.7
	c1.1-0.1,2.3,0.1,3.4,0.1c0.6,0,1.2,0.1,1.7-0.1c0.2-0.1,0.4-0.9,0.3-1c-0.4-0.3-1-0.4-1.5-0.6c-0.1,0-0.2,0-0.3,0
	c-1.1-0.1-2.1-0.3-3.2-0.4c1.2-0.4,2.5-0.9,3.7-1.3c0.4-0.1,0.8-0.1,1.2-0.1c-0.4-0.3-0.7-0.6-1.1-0.9c-0.6-0.4-1.3-0.7-1.9-1
	c-0.3-0.2-0.7-0.3-1-0.5c0.4,0,0.8,0.1,1.3,0.1c2.2,0.1,4.5,0.5,6.7,0.2c1-0.1,1.9-1.4,2.8-2.2c-0.6-0.4-1.2-0.9-1.8-1.3
	c-0.2-0.1-0.4-0.4-0.3-0.6c0.1-0.2,0.4-0.4,0.5-0.4c0.6,0.1,1.2,0.3,1.8,0.5c0.3,0.1,0.6,0.4,0.8,0.4c0.5,0,1-0.2,1.5-0.3
	c-0.3,0.8-0.6,1.6-0.9,2.3c0,0.1-0.2,0.1-0.2,0.2c0.1,0.1,0.2,0.3,0.3,0.4c0.2,0.2,0.5,0.4,0.7,0.5c-0.3,0.1-0.5,0.1-0.8,0.2
	C84.4,140.4,84.3,140.4,84.3,140.3z"/>
<path class="st1" d="M103.3,170.4c2.5,0.3,5,0.6,7.5,0.8c0.6,0,1.3-0.7,1.9-1.1c-0.7-0.1-1.4-0.4-2.1-0.4c-3.8,0-7.6,0.1-11.4,0.2
	c-0.3,0-0.9-0.4-0.9-0.6c0.1-0.6,0.3-1.5,0.7-1.6c2.3-0.5,4.7-0.9,7.1-1.3c1.1-0.2,2.3-0.7,3.4-0.6c0.8,0.1,1.5,0.9,2.3,1.4
	c0.9,0.5,1.7,1.1,2.6,1.6c0.4,0.2,0.8,0.4,1.2,0.6c-0.3,0.2-0.9,0.4-1,0.7c-0.7,3.9-3.6,1.1-5.3,1.5c-2.1,0.5-4.6-0.2-6.8-0.4
	c-0.2,0-0.4-0.2-0.6-0.3c0.4,0,0.9-0.1,1.3-0.1C103.3,170.7,103.3,170.6,103.3,170.4z"/>
<path class="st1" d="M154,160.3c-0.6-0.2-1.7-0.7-2.9-1.1c-0.2-0.1-0.5,0.2-0.8,0.2c-1,0.1-2.1,0-3.1,0.1c-0.6,0-1.2,0.2-1.8,0.3
	c-0.3,0.1-0.5,0.2-0.8,0.2c-0.1,0-0.3-0.2-0.4-0.4c0.2-0.2,0.3-0.5,0.5-0.5c4.5-0.2,5.2-4.5,7.6-6.9c0.4-0.4,0.9-0.7,1.4-1
	c0.7,1.2,1.4,2.4,2,3.6c0,0-0.8,0.5-1.2,0.7c-1.6,0.5-3.3,1-4.9,1.5c-0.3,0.1-0.4,0.5-0.6,0.8c0.3,0,0.6,0,0.9-0.1
	c3-1.7,5.2,0.9,7.7,1.4c0.1,0,0.2,0.3,0.3,0.4c-0.2,0.1-0.3,0.3-0.5,0.3C156.4,160.1,155.6,160.2,154,160.3z"/>
<path class="st1" d="M62.8,142.6c0,0-0.3,0-0.5-0.1c-0.6-0.6-0.6-0.7-1.6,0.1c-0.1,0.1-0.2,0.2-0.4,0.2c-2.3,0.3-4.7,0.6-7,0.8
	c-0.1,0-0.3-0.2-0.3-0.3c0-0.8-0.2-2.1,0-2.2c2.7-0.8,5.4-1.5,8.1-2.1c0.3-0.1,0.8,0.1,1.1,0.1c-0.3,0.1-0.6,0.3-0.9,0.4
	c-0.2,0.1-0.4,0.2-0.6,0.3c0.2,0,0.4,0,0.6,0c1.2,0.2,2.3,0.4,3.5,0.6c0.1,0,0.2,0.4,0.1,0.4c-0.4,0.2-0.8,0.4-1.2,0.5
	c0.5-0.1,1-0.1,1.6-0.1c0.3,0,0.5,0.2,0.8,0.3c-0.2,0.2-0.4,0.4-0.7,0.5C64.6,142.4,63.8,142.4,62.8,142.6z"/>
<path class="st1" d="M133.2,152.3c4.5,0.2,9,0.4,13.5,0.7c0.2,0,0.4,0.1,0.6,0.2c-0.2,0.1-0.4,0.2-0.5,0.3c-1.4,0.2-2.8,0.3-4.1,0.5
	c-0.4,0.1-0.7,0.3-1.1,0.4c0.3,0.1,0.6,0.2,0.9,0.4c0.3,0.1,0.6,0.3,0.9,0.5c-0.3,0.1-0.6,0.3-0.9,0.3c-2.2-0.4-4.3-0.9-6.5-1.3
	c-1.3-0.2-2.6-0.3-3.8-0.5c-0.6-0.1-1.2-0.5-1.8-0.7c0.6-0.1,1.1-0.1,1.7-0.2c0.4,0,0.7,0,1.1,0
	C133.2,152.6,133.2,152.4,133.2,152.3z"/>
<path class="st1" d="M56.7,169.4c0.5-0.5,1.1-0.9,1.5-1.5c0.5-0.8,0.5-1.8,1.6-0.1c0.5,0.8,2.9,0.4,4.4,0.5c1,0.1,2.1-0.1,3.1,0
	c0.6,0.1,1.2,0.4,1.8,0.6c-0.6,0.6-1,1.6-1.7,1.8c-0.8,0.3-1.8-0.1-2.6-0.1c0,0,0-0.2-0.1-0.2c0.3,0,0.6,0,0.9-0.1
	c0.4-0.1,0.8-0.2,1.2-0.3c-0.4-0.1-0.8-0.3-1.2-0.3c-2.8,0.2-5.6,0.4-8.4,0.6c-0.2,0-0.4-0.1-0.6-0.2c0.2-0.1,0.3-0.1,0.5-0.1
	c0.4-0.1,0.8-0.1,1.2-0.1c-0.4-0.1-0.8-0.1-1.2-0.2c-0.3,0-0.5,0.1-0.8,0.1c-0.8-0.1-1.5-0.3-2.2-0.5c0.7-0.1,1.3-0.1,2-0.2
	C56.4,169.1,56.5,169.2,56.7,169.4z"/>
<path class="st1" d="M144.1,79.4c0.1-0.6,0.2-1.3,0.3-1.9c0.4,0.6,1.1,1.2,1.3,1.8c0.4,1.2,0.6,2.5,0.9,3.8c0,0.1-0.3,0.3-0.4,0.5
	c-0.2,0.2-0.6,0.5-0.6,0.7c0.2,0.5,0.6,0.9,0.8,1.3c-0.8-0.4-1.7-0.7-2.3-1.3c-0.4-0.3-0.6-1.1-0.5-1.5c0.2-1.1,0.6-2.2,0.8-3.3
	C144.3,79.4,144.2,79.4,144.1,79.4z"/>
<path class="st1" d="M140.7,149.3c-2.5,0-5.1,0-7.6,0c-0.3,0-0.6-0.2-0.9-0.3c0.3-0.1,0.5-0.3,0.8-0.2c2.9,0,5.9,0,8.8,0.1
	c0.4,0,0.9,0.3,1.3,0.5c-0.5,0.1-1,0.2-1.5,0.3c-0.3,0-0.6,0-0.9,0C140.7,149.5,140.7,149.4,140.7,149.3z"/>
<path class="st1" d="M175.6,130.4c-2.1-0.3-4.4-0.6-6.7-1c-0.3,0-0.4-0.4-0.7-0.6c0.3-0.1,0.6-0.4,0.9-0.3c2.4,0.3,4.8,0.6,7.1,1
	c0.3,0.1,0.5,0.4,0.8,0.6C176.6,130.1,176.3,130.2,175.6,130.4z"/>
<path class="st1" d="M75.1,138.4c0.3-1.2,0.3-1.7,0.4-1.7c1.2-0.3,2.5-0.5,3.8-0.8c0.1,0,0.2,0.2,0.2,0.2c-0.9,1.1-1.9,2.3-2.9,3.3
	C76.4,139.5,75.5,138.7,75.1,138.4z"/>
<path class="st1" d="M100.6,144.3c-1.1-0.5-2.2-1-3.3-1.5c0,0,0-0.2,0.1-0.2c0.7-0.1,1.3-0.4,2-0.4c0.5,0,1.1,0.3,1.6,0.4
	c0.7,0.2,1.3,0.4,2,0.7C102.2,143.6,101.5,143.9,100.6,144.3z"/>
<path class="st1" d="M42.8,148.6c-0.7,0.4-1.4,0.9-2.2,1.3c-0.2,0.1-0.8,0-0.9-0.1c-0.2-0.2-0.1-0.9,0-0.9c0.6-0.4,1.3-0.9,2.1-1
	c1.3-0.1,2.5,0,3.8,0c0,0,0.2,0.5,0.1,0.7c-0.1,0.2-0.4,0.5-0.6,0.5c-0.7,0.1-1.4,0-2.1,0C43,148.9,42.9,148.7,42.8,148.6z"/>
<path class="st1" d="M83.8,136.2c-1.3-0.6-2.5-1.1-3.7-1.6c1.2-0.2,2.4-0.6,3.6-0.6c0.6,0,1.1,0.7,1.7,1.1
	C84.9,135.4,84.4,135.8,83.8,136.2z"/>
<path class="st1" d="M47.5,142.1c-0.2-0.1-0.5-0.4-0.8-0.6c0.3-0.2,0.6-0.3,0.9-0.6c0.4-0.4,0.7-1.1,1.1-1.2
	c0.9-0.2,1.8-0.2,2.7-0.2c0.3,0,0.6,0.1,0.9,0.2c-0.3,0.1-0.6,0.1-0.8,0.3C50.2,140.7,48.9,141.4,47.5,142.1z"/>
<path class="st1" d="M116.4,170.8c2.1,0.3,3.8,0.6,5.5,0.8c0,0,0.1,0.1,0.1,0.2c-1.1,0.2-2.1,0.7-3.2,0.7c-0.9,0-1.7-0.6-2.5-1
	C116.2,171.5,116.4,170.9,116.4,170.8z"/>
<path class="st1" d="M138.9,135.1c-1.2,0.2-2.4,0.4-3.6,0.5c-0.3,0-0.6-0.2-0.9-0.3c0.3-0.1,0.5-0.3,0.8-0.3
	c1.6-0.2,3.3-0.4,4.9-0.4c0.4,0,0.9,0.2,1.4,0.3c-0.5,0.1-0.9,0.3-1.4,0.3C139.7,135.2,139.3,135.2,138.9,135.1
	C138.9,135.2,138.9,135.2,138.9,135.1z"/>
<path class="st1" d="M104.9,141.2c0.9,0.3,1.8,0.6,2.7,0.9c-0.3,0.2-0.6,0.6-0.8,0.6c-1.3-0.1-2.5-0.4-3.8-0.6
	C103.6,141.7,104.2,141.5,104.9,141.2z"/>
<path class="st1" d="M74.3,170.9c0.4,0.2,0.1,0.1-0.1-0.1c0.2-0.1,0.5-0.3,0.7-0.4c1.4-0.3,2.7-0.8,4.1-0.9c1.3-0.1,2.6,0.3,3.9,0.4
	c-1.3,0-2.6-0.1-3.9,0.1C77.6,170.2,76.2,170.5,74.3,170.9z"/>
<path class="st1" d="M42.1,129.8c1.1,0.1,2.7,0.1,4.2,0.3c0.3,0,0.5,0.2,0.8,0.3c-0.2,0.1-0.5,0.4-0.7,0.4c-2.1-0.1-4.2-0.4-6.3-0.6
	c-0.1,0-0.1-0.1-0.2-0.2C40.5,129.9,41.1,129.9,42.1,129.8z"/>
<path class="st1" d="M61.6,145.9c1.1-0.1,2.2-0.3,3.3-0.4c0.3,0,0.6,0.1,0.9,0.1c0,0,0.1,0.3,0,0.4c-0.6,0.3-1.3,0.6-1.9,0.7
	c-0.9,0.1-1.8,0.2-2.7,0.2c-0.2,0-0.5-0.1-0.6-0.3c-0.2-0.2-0.2-0.4-0.3-0.6c0.4-0.1,0.8-0.3,1.2-0.4
	C61.5,145.7,61.5,145.8,61.6,145.9z"/>
<path class="st1" d="M87.7,165.8c-1-0.2-2-0.3-3-0.5c1.4-0.4,2.8-0.9,4.3-1.1c0.2,0,0.6,0.9,0.9,1.4c-0.8,0-1.5,0-2.3,0
	C87.7,165.6,87.7,165.7,87.7,165.8z"/>
<path class="st1" d="M112.2,162.4c1.7,0.5,3.2,1,4.8,1.6c0.2,0.1,0.3,0.3,0.4,0.4c-0.2-0.1-0.3-0.2-0.5-0.2c-1.5,0-3.1,0-4.6-0.1
	c-0.5-0.1-1-0.6-1.6-0.9C111.2,162.9,111.7,162.7,112.2,162.4z"/>
<path class="st1" d="M170.3,162.7c1.8,0.1,3.7,0.1,5.5,0.1c0.2,0,0.4,0.1,0.6,0.1c-0.2,0.2-0.4,0.5-0.6,0.5
	c-1.7,0.3-3.4,0.5-5.1,0.8c0-0.2,0.1-0.5,0.1-0.7C170.7,163.2,170.5,163,170.3,162.7C170.4,162.7,170.3,162.7,170.3,162.7z"/>
<g>
	<g>
		<path class="st1" d="M96.6,73.6c2,1.3,3.9,2.6,5.5,4.4c1.4,1.7,2.6,3.7,3.6,5.7c0.6-0.7,1.1-1.5,1.7-2.2c-0.9-0.3-2-0.8-2.7-1.5
			c-1-0.8-1.6-1.8-2.5-2.7c-0.9-0.9-1.9-1.6-2.8-2.6c-0.2-0.2-0.4-0.5-0.6-0.7c-0.1-0.2-0.3-0.3-0.4-0.4c-0.2-0.2-0.1-0.2-0.1,0
			c0,0.1,0,0.1,0,0.2c0,0.1,0,0.1,0-0.1c-0.2,0.2,0.1-0.2,0.2-0.4c0.1-0.3,0.2-0.7,0.2-1.1c0-0.8-0.7-1.5-1.5-1.5
			c-0.8,0-1.5,0.7-1.5,1.5c0-0.1,0-0.1,0,0c0,0.1,0,0.2-0.1,0.2c0.1-0.2-0.2,0.4-0.2,0.4c-0.1,0.4-0.2,0.8-0.1,1.2
			c0.2,0.9,0.8,1.5,1.4,2.2c0.5,0.6,1,1.1,1.5,1.7c0.5,0.5,1.1,0.9,1.7,1.4c1,0.9,1.8,2.1,2.9,3c1.2,0.9,2.4,1.6,3.9,2.1
			c1.3,0.4,2.3-1.1,1.7-2.2c-1.2-2.2-2.5-4.4-4.1-6.3c-1.7-2-3.9-3.4-6.1-4.9c-0.7-0.5-1.7-0.1-2.1,0.5
			C95.7,72.3,95.9,73.1,96.6,73.6L96.6,73.6z"/>
	</g>
</g>
<g>
	<g>
		<path class="st1" d="M96.4,74.4c1.8,1.5,3.4,3,5.1,4.7c0.4,0.4,0.7,0.7,1.1,1.1c0.2,0.2,0.2,0.2,0.3,0.4c0.1,0.2,0.2,0.4,0.3,0.6
			c0.5,0.9,0.9,1.8,1.9,2.3c0.6,0.3,1.3,0.3,1.8-0.2c0.5-0.5,0.6-1.2,0.2-1.8c-2.2-4-5.5-7.4-9.4-9.8c-0.7-0.4-1.7-0.2-2.1,0.5
			c-0.4,0.7-0.2,1.6,0.5,2.1c0.4,0.3,0.9,0.6,1.3,0.9c0.2,0.2,0.4,0.3,0.7,0.5c0.2,0.1,0,0,0.1,0.1c0.1,0.1,0.2,0.2,0.3,0.2
			c0.8,0.7,1.6,1.4,2.3,2.2c0.3,0.4,0.7,0.7,1,1.1c0.2,0.2,0.3,0.4,0.5,0.6c0.1,0.1-0.1-0.1,0.1,0.1c0.1,0.1,0.2,0.2,0.2,0.3
			c0.6,0.9,1.2,1.8,1.7,2.7c0.7-0.7,1.4-1.4,2.1-2.1c0,0-0.3-0.2-0.2-0.1c0.2,0.1-0.1-0.1-0.1-0.1c0.1,0.1,0.1,0.2,0,0
			c-0.1-0.1-0.1-0.2-0.2-0.3c-0.2-0.4-0.4-0.8-0.6-1.1c-0.6-0.9-1.4-1.7-2.1-2.5c-1.6-1.6-3.2-3.1-4.9-4.5c-0.6-0.5-1.5-0.6-2.1,0
			C95.9,72.8,95.7,73.8,96.4,74.4L96.4,74.4z"/>
	</g>
</g>
<g>
	<g>
		<path class="st1" d="M97,75.4C96.8,75.4,96.8,75.4,97,75.4C97.1,75.4,96.7,75.2,97,75.4c0,0.1,0.1,0.1,0.2,0.2
			c0.3,0.2-0.1-0.1,0,0c0.3,0.3,0.6,0.5,0.9,0.8c0.6,0.6,1.2,1.1,1.8,1.7c0.6,0.6,1.1,1.2,1.7,1.8c0.3,0.3,0.6,0.6,0.8,0.9
			c0.1,0.1,0.1,0.2,0.2,0.3c0,0.1,0.2,0.3,0.1,0.1c0.1,0.2,0.3,0.3,0.4,0.5c0.5,0.6,1.3,1,2.1,0.5c0.6-0.4,1-1.4,0.5-2.1
			c-1.1-1.6-2.4-3-3.8-4.3c-0.6-0.6-1.3-1.2-2-1.9c-0.4-0.3-0.7-0.7-1.2-1c-0.5-0.3-1.1-0.5-1.7-0.6c-0.8-0.1-1.5,0.8-1.5,1.5
			C95.5,74.8,96.1,75.3,97,75.4L97,75.4z"/>
	</g>
</g>
<g>
	<g>
		<path class="st1" d="M96.4,75.7c1.1,1,2.2,2,3.3,3c1,0.9,2.1,1.9,3,3c0.2,0.3,0.7,0.4,1.1,0.4c0.4,0,0.8-0.2,1.1-0.4
			c0.3-0.3,0.5-0.7,0.4-1.1c0-0.4-0.2-0.7-0.4-1.1c-0.9-1.1-1.9-2-3-3c-1.1-1-2.2-2-3.3-3c-0.6-0.5-1.6-0.6-2.1,0
			C95.9,74.2,95.8,75.2,96.4,75.7L96.4,75.7z"/>
	</g>
</g>
<g>
	<g>
		<path class="st1" d="M103.5,82.5c0.1,0.1,0.2,0.1,0.3,0.2c0.2,0.1,0.4,0.2,0.6,0.2c0.2,0,0.4,0,0.6,0c0.2-0.1,0.4-0.1,0.5-0.3
			c0.2-0.1,0.3-0.3,0.4-0.4c0.1-0.1,0.1-0.2,0.2-0.4c0.1-0.3,0.1-0.5,0-0.8c-0.1-0.1-0.1-0.2-0.2-0.4c-0.1-0.2-0.3-0.4-0.5-0.5
			c-0.1-0.1-0.2-0.1-0.3-0.2c-0.2-0.1-0.4-0.2-0.6-0.2c-0.2,0-0.4,0-0.6,0c-0.2,0.1-0.4,0.1-0.5,0.3c-0.2,0.1-0.3,0.3-0.4,0.4
			c-0.1,0.1-0.1,0.2-0.2,0.4c-0.1,0.3-0.1,0.5,0,0.8c0.1,0.1,0.1,0.2,0.2,0.4C103.1,82.2,103.3,82.4,103.5,82.5L103.5,82.5z"/>
	</g>
</g>
<g>
	<g>
		<path class="st1" d="M105.4,83.5C105.4,83.5,105.4,83.5,105.4,83.5c0-0.1-0.1-0.1-0.3-0.2c0,0,0,0,0,0c0.1,0.2,0.3,0.3,0.5,0.3
			c0.2,0.1,0.4,0.1,0.6,0.1c0.2,0,0.4,0,0.6-0.1c0.2-0.1,0.3-0.2,0.5-0.3c0.1-0.1,0.2-0.2,0.2-0.3c0.1-0.2,0.2-0.5,0.2-0.8
			c0-0.1,0-0.3-0.1-0.4c-0.1-0.3-0.2-0.5-0.4-0.7c0,0,0,0,0,0l0,0c0,0,0,0,0,0c-0.1,0-0.1-0.1-0.2-0.1S107,81,107,80.9
			c0,0,0,0-0.1,0c-0.2-0.1-0.4-0.2-0.6-0.2c-0.2,0-0.4,0-0.6,0c-0.2,0.1-0.4,0.1-0.5,0.3c-0.2,0.1-0.3,0.3-0.4,0.4
			c-0.1,0.1-0.1,0.2-0.2,0.4c-0.1,0.3-0.1,0.5,0,0.8c0.1,0.1,0.1,0.2,0.2,0.4C105,83.2,105.2,83.4,105.4,83.5L105.4,83.5z"/>
	</g>
</g>
<g>
	<g>
		<path class="st1" d="M100,76.4c0,0,0.1,0,0.1,0c-0.1-0.1-0.2-0.1-0.4-0.2C99.9,76.3,100,76.4,100,76.4c-0.1,0-0.2-0.1-0.3-0.2
			c0.4,0.3,0.7,0.7,1,1c0.3,0.3,0.7,0.7,1,1.1c-0.1-0.1-0.2-0.2-0.2-0.3c0.3,0.3,0.5,0.7,0.8,1c0.2,0.2,0.4,0.5,0.6,0.7
			c-0.1-0.1-0.2-0.2-0.2-0.3c0.1,0.1,0.2,0.2,0.3,0.4c0.2,0.3,0.5,0.6,0.9,0.7c0.4,0.1,0.8,0.1,1.2-0.2c0.6-0.4,1-1.4,0.5-2.1
			c-0.2-0.3-0.5-0.7-0.7-1c-0.2-0.2-0.4-0.4-0.6-0.7c0.1,0.1,0.2,0.2,0.2,0.3c-0.3-0.4-0.5-0.7-0.8-1.1c-0.3-0.3-0.5-0.5-0.8-0.8
			c-0.6-0.6-1.2-1.3-2.1-1.6c-0.8-0.2-1.7,0.3-1.8,1.1C98.8,75.3,99.2,76.1,100,76.4L100,76.4z"/>
	</g>
</g>
<g>
	<rect x="237.4" y="82" class="st2" width="938" height="129"/>
	<path class="st0" d="M295.3,84.6c-2.3,0.9-5.4-0.2-10.6,1.5c-5.9,1.9-13.8,4-28,10.5c-0.4,4.8-1.3,9.6-2,14.4
		c3.1-1.5,8.8-4.1,13.7-5.5c4.8-1.3,10.5-2.4,13.5-2.4c1.5,0,3.4,0.4,3.4,2.4c0,1.8-1.8,3.4-3.2,4c-1.1,0.3-2.2,0.4-3.4,0.6
		c-8.5,0.9-18.1,5.1-25,9.7c-0.2,2-0.8,9.3-0.8,14c0,3.2,0.6,5.1,0.6,5.9c0,2-1.7,3.5-3.9,3.5c-1.1,0-2.2-0.4-2.9-1.1
		c-0.3-0.3-0.4-2.3-0.4-4.9c0-5.4,0.5-13.5,0.5-15.2c-0.8-0.6-1.8-1.6-1.8-3.2c0-2.1,0.9-2.8,2.4-4c0.5-5,0.9-10.1,1.3-15
		c-2.8,0.9-6,2.7-9.3,2.7c-1.8,0-3.2-2.1-3.2-3.7c0-0.9,0.3-1.8,0.8-2.4c0.8-1.2,9.9-3.4,12-4.1c0.2-2.1,0.9-5.4,3.8-5.4
		c1.7,0,2.8,1.4,3.4,2.7c3.9-1.4,30.2-11.4,38.1-11.4c2.3,0,3.6,1.2,3.6,3.3C297.7,82.7,296.8,84,295.3,84.6z"/>
	<path class="st0" d="M312.9,112.2c-1.2,0-2.1-0.7-3.2-0.7c-0.4,0-0.9,0.2-1.5,0.5c-4.8,2.8-10.8,9.5-16.4,18.2
		c-2.8,4.1-1.6,10.3-3.1,12.1c-0.8,1-1.8,1.4-2.8,1.4c-2.4,0-4.4-1.5-4.4-4.1c0-0.8,0.1-1.9,0.3-2.9c0.8-4.4,1.5-9.5,1.5-14.6
		c0-4.5-0.5-8.9-1.9-12.7c-0.1-0.3-0.2-0.6-0.2-0.9c0-1.7,2-3,4-3c4.6,0,4.8,5.8,4.8,9.8c0,2.8,0.1,4.4,0.1,6.3
		c2.9-3.7,10.4-12.3,15-14.9c1.6-0.9,3.4-1.5,5.5-1.5c2.7,0,6,0.8,6,4.2C316.4,110.9,314.7,112.2,312.9,112.2z"/>
	<path class="st0" d="M350,129.6c-1.2,0.7-2.7,2.1-3.8,2.9c-4.9,3.7-13.7,10.1-20.8,10.1c-7.7,0-13.8-8.9-13.8-16.6
		c0-11.4,12.8-19.8,24.1-19.8c3.1,0,6.3,0.6,8.6,2c0.5,0.3,0.9,0.6,0.9,0.9c0,2.6-5.2,9.5-12.2,12.4c-7.3,3.1-10.8,2.8-14.1,3.4v1.1
		c0,4.1,2.9,10,7.7,10c5.8,0,17.5-9.5,18.6-10.7c0.9-1.5,2-3.5,3.8-3.5c1.7,0,3.6,1.8,3.6,3.7C352.5,127.1,351.3,128.8,350,129.6z
		 M335.3,112.8c0-0.1,0-0.2-0.3-0.2c-1,0-3.6,0.2-7.1,1.8c-3.4,1.5-6.1,4.2-6.1,4.2s5.2-0.9,7.8-2.1c3-1.4,4.8-2.8,5.6-3.5
		C335.2,113,335.3,112.9,335.3,112.8z"/>
	<path class="st0" d="M366.7,85.8c-1,2.8-2.1,3.6-2.4,6.8c-0.1,1.8-1.7,3-3.2,3c-1.8,0-2.7-1.7-2.7-3.5c0-2.8,1.7-6.7,2.5-8.8
		c0.9-2.3,2.3-3.2,3.4-3.2c1.6,0,2.9,1.5,2.9,3C367.3,84,367.1,84.7,366.7,85.8z M365.3,132c0,2.3,1,4,1,5.7c0,2.2-1.8,4.1-3.7,4.1
		c-3.8,0-3.8-5.4-3.8-8.3c0-4.6,0.5-10.1,0.8-17c0.1-2.8-0.4-10.3,3.6-10.6c2.1,0,4,2.1,4,4.6C367.1,113,365.3,127.7,365.3,132z"/>
	<path class="st0" d="M410.9,129.6c-1.2,0.7-2.7,2.1-3.8,2.9c-4.9,3.7-13.7,10.1-20.8,10.1c-7.7,0-13.8-8.9-13.8-16.6
		c0-11.4,12.8-19.8,24.1-19.8c3.1,0,6.3,0.6,8.6,2c0.5,0.3,0.9,0.6,0.9,0.9c0,2.6-5.2,9.5-12.2,12.4c-7.3,3.1-10.8,2.8-14.1,3.4v1.1
		c0,4.1,2.9,10,7.7,10c5.8,0,17.5-9.5,18.6-10.7c0.9-1.5,2-3.5,3.8-3.5c1.7,0,3.6,1.8,3.6,3.7C413.4,127.1,412.2,128.8,410.9,129.6z
		 M396.2,112.8c0-0.1,0-0.2-0.3-0.2c-1,0-3.6,0.2-7.1,1.8c-3.4,1.5-6.1,4.2-6.1,4.2s5.2-0.9,7.8-2.1c3-1.4,4.8-2.8,5.6-3.5
		C396.1,113,396.2,112.9,396.2,112.8z"/>
	<path class="st0" d="M474,145.4c-0.6,2.3-2.9,3.3-5.2,3.3c-2.4,0-5.2-0.9-5.2-4c0-3.1,3.1-4.6,4.7-4.8c6.4-0.9,22.1-10.1,22.1-14.8
		c0-12.6-41.6-7.7-41.6-21.6c0-13.8,24.3-21.9,32.1-21.9c5.9,0,7.1,1.5,9.7,5.8c0.2,0.3,0.3,0.5,0.3,0.9c0,1.5-1.6,3.3-3.7,3.3
		c-0.9,0-1.8-0.3-2.8-1.1c-0.6-0.5-1.3-1.5-2.4-1.5c-8.1,0-25.5,7.4-25.5,13.3c0,7.4,41.1,5.2,41.1,21.8
		C497.6,136.9,474.4,143.7,474,145.4z"/>
	<path class="st0" d="M546.6,127c-2.3,1.9-21.2,15.4-34.5,15.4c-5.5,0-11.5-3-11.5-9.7c0-9.5,12.9-25.5,22.4-25.5c2.8,0,4,1.3,4,2.8
		c0,2-2.8,5.5-5.1,5.5c-0.9,0-1.7-0.3-2.3-0.3c-4.4,0-11.9,12-11.9,16.7c0,2.6,1.4,4.4,5,4.4c3.3,0,8.2-1.4,15.5-4.9
		c4.9-2.3,13.8-7.8,14.5-8.1c0.4-0.2,0.8-0.2,1.2-0.2c1.7,0,2.9,1.6,2.9,3.2C546.9,126.8,546.7,126.9,546.6,127z"/>
	<path class="st0" d="M577.9,135.5c0,2,0.2,3.1,0.2,4.2c-0.1,1.8-1.1,2.8-3.3,2.8c-3.4,0-4.1-2.7-4.1-5.3s0.6-6.7,0.6-12.6
		c0-4.7-0.4-9.4-1.8-10.1c-0.3-0.2-0.7-0.3-1.1-0.3c-4.4,0-13.2,9.5-15.3,14.2c-1.7,3.8-2,7.7-2,9.7c0,1.7,0.1,2.1,0.1,2.4
		c0,3.7-2.2,5.4-4.4,5.4c-1.9,0-3.8-1.5-3.8-4c0-0.8,0.1-1.6,0.5-2.6c0.8-1.8,0.8-1.7,0.9-4c0.4-10,0.6-19.4,1.6-29.4
		c0.8-6.9,0.9-12.1,1.3-15.6c0.4-4.4,1.8-6.3,3.6-6.3c3,0.2,4,1.9,4,4.3c0,2.6-1.3,8.3-1.7,13.3c-0.5,5.8-1.1,11.7-1.5,17.6
		c3.9-4.4,11.7-12.3,18.1-12.3c8.1,0,8.4,15.7,8.4,21.4C578.2,130.9,577.9,133.3,577.9,135.5z"/>
	<path class="st0" d="M598.5,141.3c-1.1,0.4-2.2,0.6-3.1,0.6c-10.7,0-11-24-11-32v-1c0-2.7,1.5-3.9,3.2-3.9c2,0,4.1,1.6,4.1,4.4
		c0,1-0.1,2.3-0.1,3.7c0,8.3,0.9,21.2,3.6,21.2c0.3,0,0.6-0.2,1-0.6c3.5-3.7,4.3-19.5,4.4-21.6c0.1-2.9,1.7-4.2,3.4-4.2
		c2.1,0,4.3,1.8,4.3,4.6C608.4,116,604.1,139.3,598.5,141.3z"/>
	<path class="st0" d="M627.3,88.3c-1.7,14.9-4.5,30.4-4.5,45.6c0,2.2,0.2,5.4,0.2,7.2c0,2.9-1.2,6.4-3.6,6.4c-0.9,0-1.7-0.3-2.8-1.2
		c-0.6-0.5-0.9-2.9-0.9-6.4c0-11.5,2.8-34.9,3.1-39.3c0.4-5.3,0.7-9.8,0.9-13.1c0.3-3.8,0.8-6,1.3-6.5c0.6-0.6,1.6-1.3,2.8-1.3
		c2.5,0,3.7,2.1,3.7,4.8C627.6,85.3,627.5,86.6,627.3,88.3z"/>
	<path class="st0" d="M667.9,129.6c-1.2,0.7-2.7,2.1-3.8,2.9c-4.9,3.7-13.7,10.1-20.8,10.1c-7.7,0-13.8-8.9-13.8-16.6
		c0-11.4,12.8-19.8,24.1-19.8c3.1,0,6.3,0.6,8.6,2c0.5,0.3,0.9,0.6,0.9,0.9c0,2.6-5.2,9.5-12.2,12.4c-7.3,3.1-10.8,2.8-14.1,3.4v1.1
		c0,4.1,2.9,10,7.7,10c5.8,0,17.5-9.5,18.6-10.7c0.9-1.5,2-3.5,3.8-3.5c1.7,0,3.6,1.8,3.6,3.7C670.4,127.1,669.2,128.8,667.9,129.6z
		 M653.2,112.8c0-0.1,0-0.2-0.3-0.2c-1,0-3.6,0.2-7.1,1.8c-3.4,1.5-6.1,4.2-6.1,4.2s5.2-0.9,7.8-2.1c3-1.4,4.8-2.8,5.6-3.5
		C653.1,113,653.2,112.9,653.2,112.8z"/>
	<path class="st0" d="M763.9,109.1c-0.3,11.8-25,33.5-43,33.5c-2.6,0-5.2-0.4-7.4-1.5c-6.4-3-8.9-8.6-8.9-15.1
		c0-16.9,17-40.2,28.9-40.2c5.2,0,7.7,1.9,8.4,2.8c13.8,2.7,22,8.5,22,19.3V109.1z M735.5,95.5h-0.9c-1.8,0.9-3.5,2.7-5.4,2.7
		c-0.9,0-1.8-0.4-2.8-1.5c-9.1,7.8-14.2,20.1-14.2,28.6c0,4.1,1.2,7.2,3.6,8.6c1.9,1,4,1.5,6.3,1.5c14.5,0,34.6-18.2,34.6-27.1
		C756.6,96.3,740,95.5,735.5,95.5z"/>
	<path class="st0" d="M776.1,149.2c-2.3,0-4.1-1.4-4.1-3.3c0-0.7,0.3-1.4,0.8-2.1c1-1.5,12-4.9,12-6.9c-1.2-2.4-19.3-3.4-19.3-15.7
		c0-9,8.5-16.4,15.3-21.8c1.2-1,2.8-1.4,4.2-1.4c3.4,0,7.1,2.1,7.1,4.4c0,1.5-0.9,2.8-3.1,2.8c-1.4,0-1.9-0.3-3-0.7
		c-2.6,0.1-5.2,3.3-8.9,6.7c-3.7,3.4-4.8,7.6-4.8,9.8c0,8.5,20.1,6,20.1,16.3C792.3,141.8,779.4,149.2,776.1,149.2z"/>
	<path class="st0" d="M823.5,102.4c1.2-9.5,4.6-21.5,15.6-21.5c0.9,0,1.7,0,2.8,0.2c4.3,0.8,6.1,3.1,6.1,5.2c0,1.6-1.1,3-2.9,3
		c-0.8,0-1.6-0.3-2.6-0.8c-1.5-0.9-2.6-1.2-3.8-1.2c-5.1,0-7.3,7.5-8.2,14.9c7.9-0.3,9.5-0.5,10.1-0.9c0.6-0.4,1.2-0.5,1.9-0.5
		c2.1,0,4.1,1.5,4.1,4c0,3.4-3,3.6-5,3.7l-11.7,0.5c-0.1,1.7-0.1,3.2-0.1,4.5l0.1,8.3c0,7.5-0.3,16.9-1,22.4
		c-1,6.9-2.5,13.5-3.6,20.3c-0.5,2.8-0.6,7-3.9,7c-0.7,0-1.5-0.2-2.5-0.6c-1.5-0.6-2.2-2.1-2.2-3.7c0-1.1,0.4-2.2,1-3
		c0.3-0.4,2.6-8.5,3.9-20c0.9-7.8,1.2-16.8,1.2-31.7v-3.1c-3.4,0.3-6.8,0.7-8.6,1c-0.7,4.8-1.8,16.2-1.8,23.6c0,2.2,0.1,4.1,0.3,5.3
		c0.2,0.6,0.3,1.1,0.3,1.6c0,2.2-1.5,3.3-3.1,3.3c-2.2,0-4.9-1.9-4.9-5.8c0-3.7,0-8.9,0.9-17.3c0.5-4.8,0.9-6.8,1.1-9.3
		c-4.4,1.1-5.1,2.1-8.8,4.5c-0.5,0.3-1.1,0.7-1.8,0.7c-1.9,0-4.1-1.7-4.1-3.8c0-1.1,0.5-2.1,1.5-2.9c2.6-2,11.2-4.9,14.3-5.7
		c0.3-2,1.9-12,1.9-15.6c0-0.9-0.1-2-0.1-3.1c0-2.2,0.4-4.4,3.2-4.4c3,0,3.9,3.5,3.9,7.7c0,5.2-1.4,11.7-1.7,14
		C817.3,102.9,820.4,102.5,823.5,102.4z"/>
	<path class="st0" d="M876,112.2c-1.2,0-2.1-0.7-3.2-0.7c-0.4,0-0.9,0.2-1.5,0.5c-4.8,2.8-10.8,9.5-16.4,18.2
		c-2.8,4.1-1.6,10.3-3.1,12.1c-0.8,1-1.8,1.4-2.8,1.4c-2.4,0-4.4-1.5-4.4-4.1c0-0.8,0.1-1.9,0.3-2.9c0.8-4.4,1.5-9.5,1.5-14.6
		c0-4.5-0.5-8.9-1.9-12.7c-0.1-0.3-0.2-0.6-0.2-0.9c0-1.7,2-3,4-3c4.6,0,4.8,5.8,4.8,9.8c0,2.8,0.1,4.4,0.1,6.3
		c2.9-3.7,10.4-12.3,15-14.9c1.6-0.9,3.4-1.5,5.5-1.5c2.7,0,6,0.8,6,4.2C879.5,110.9,877.8,112.2,876,112.2z"/>
	<path class="st0" d="M889.9,85.8c-1,2.8-2.2,3.6-2.4,6.8c-0.1,1.8-1.7,3-3.2,3c-1.8,0-2.7-1.7-2.7-3.5c0-2.8,1.7-6.7,2.5-8.8
		c0.9-2.3,2.3-3.2,3.4-3.2c1.6,0,2.9,1.5,2.9,3C890.5,84,890.2,84.7,889.9,85.8z M888.4,132c0,2.3,1,4,1,5.7c0,2.2-1.8,4.1-3.7,4.1
		c-3.8,0-3.8-5.4-3.8-8.3c0-4.6,0.5-10.1,0.8-17c0.1-2.8-0.4-10.3,3.6-10.6c2.2,0,4,2.1,4,4.6C890.3,113,888.4,127.7,888.4,132z"/>
	<path class="st0" d="M934.1,129.6c-1.2,0.7-2.7,2.1-3.8,2.9c-4.9,3.7-13.7,10.1-20.8,10.1c-7.7,0-13.8-8.9-13.8-16.6
		c0-11.4,12.8-19.8,24.1-19.8c3.1,0,6.3,0.6,8.6,2c0.5,0.3,0.9,0.6,0.9,0.9c0,2.6-5.2,9.5-12.2,12.4c-7.3,3.1-10.8,2.8-14.1,3.4v1.1
		c0,4.1,2.9,10,7.7,10c5.8,0,17.5-9.5,18.6-10.7c0.9-1.5,2-3.5,3.8-3.5c1.7,0,3.6,1.8,3.6,3.7C936.5,127.1,935.3,128.8,934.1,129.6z
		 M919.3,112.8c0-0.1,0-0.2-0.3-0.2c-1,0-3.6,0.2-7.1,1.8c-3.4,1.5-6.1,4.2-6.1,4.2s5.2-0.9,7.8-2.1c3-1.4,4.8-2.8,5.6-3.5
		C919.3,113,919.3,112.9,919.3,112.8z"/>
	<path class="st0" d="M948.8,149.2c-2.3,0-4.1-1.4-4.1-3.3c0-0.7,0.3-1.4,0.8-2.1c1-1.5,12-4.9,12-6.9c-1.2-2.4-19.3-3.4-19.3-15.7
		c0-9,8.5-16.4,15.3-21.8c1.2-1,2.8-1.4,4.2-1.4c3.4,0,7.1,2.1,7.1,4.4c0,1.5-0.9,2.8-3.1,2.8c-1.4,0-1.9-0.3-3-0.7
		c-2.6,0.1-5.2,3.3-8.9,6.7c-3.7,3.4-4.8,7.6-4.8,9.8c0,8.5,20.1,6,20.1,16.3C965.1,141.8,952.2,149.2,948.8,149.2z"/>
	<path class="st0" d="M984,88.3c-1.7,14.9-4.5,30.4-4.5,45.6c0,2.2,0.2,5.4,0.2,7.2c0,2.9-1.2,6.4-3.6,6.4c-0.9,0-1.7-0.3-2.8-1.2
		c-0.6-0.5-0.9-2.9-0.9-6.4c0-11.5,2.8-34.9,3.1-39.3c0.4-5.3,0.7-9.8,0.9-13.1c0.3-3.8,0.8-6,1.3-6.5c0.6-0.6,1.6-1.3,2.8-1.3
		c2.5,0,3.7,2.1,3.7,4.8C984.3,85.3,984.2,86.6,984,88.3z"/>
	<path class="st0" d="M1009.4,141.6c-0.4,0.5-1,0.8-1.7,0.8c-1.3,0-2.7-0.9-3.2-2.1c-2.1,1.2-6.2,3.3-10,3.3c-4.2,0-7.3-3.2-7.3-7.6
		c0-6.5,6.2-14,12-14c2.5,0,5,1.5,6.9,5.1c0.2-1.1,0.3-2.4,0.3-3.9c0-3.4-1.5-11.7-6.6-11.7c-2.3,0-4.6,1.5-4.7,2
		c-0.1,0.9-0.9,1.5-2,1.5c-1.7,0-3.5-1.3-3.5-3.2c0-3.9,5.8-6.6,10.9-6.6c8.9,0,12.7,9.8,12.7,17.9
		C1013.3,131.6,1010.2,140.1,1009.4,141.6z M999.2,128.7c-2.8,0.2-5.8,4.3-5.8,7.1c0,1.2,0.6,1.6,1.5,1.6c2.2,0,6.2-2.6,7.7-3.7
		C1002,132.1,1000.4,128.7,999.2,128.7z"/>
	<path class="st0" d="M1044.1,146.5c-2.4,0-5.1-2.1-5.1-4.8c0-0.5,0.1-1,0.3-1.5c0-3.6-0.8-7.7-0.9-13.2c0-2.8,0.1-5.6,0.1-8.3
		c0-2.6-0.1-4.9-0.3-4.9c-6.3,8-10.7,28.4-12.8,29.2c-1.1,0.5-2,0.7-2.7,0.7c-2.7,0-3.2-2.5-3.2-5.2c0-0.8,0-2.4,0.1-3.1
		c1-10.2,0.4-18.1,1.7-27.4c0.3-2.2,1.5-2.9,2.9-2.9c1.5,0,3.1,0.9,3.9,1.7c0.4,0.5,0.6,1.4,0.6,2.5c0,2.7-0.9,6.6-0.9,10.1
		c3.4-5.7,8.2-14.8,12-14.8c4.6,0,5.8,8.9,5.8,22c0,9.1,0,11.5,0.2,12.1c0.7,1.3,1.5,2.9,1.5,4.5
		C1047.5,145.3,1046,146.5,1044.1,146.5z"/>
	<path class="st0" d="M1092.2,89.4c-0.5,1.4-3.1,22.4-3.8,34.6c2.7,0.8,3.7,2.1,3.7,3.4c0,1.9-2.1,3.9-5.1,4.9
		c0,4.1-0.4,8.9-2.7,8.9c-2.8,0-4.2-2.2-4.6-4.9c-3.6,2.2-12.6,7.2-19.7,7.2c-6.1,0-9.5-4.4-9.5-10.1c0-10.8,13.4-22.5,21.2-22.5
		c4.1,0,7.8,2.7,10.3,6.5c0.9-7.7,2.8-24.9,2.8-27.8c0-1.1-0.4-2.2-0.4-3.6c0-2.8,1.4-4,3-4c2.3,0,5.2,2.3,5.2,5.4
		C1092.5,88.1,1092.5,88.7,1092.2,89.4z M1071.6,117.4c-6.2,0-14,10.7-14,16.3c0,1.9,1.1,3.4,3.3,3.4c5.2,0,15-6.7,17.7-8.3
		C1078,125.4,1076.5,117.4,1071.6,117.4z"/>
</g>
</svg>
